inDegrees=yes
name=ik_S56_A07_T01
DataType=double
version=3
OpenSimVersion=4.3-2021-08-27-4bc7ad9
endheader
time	pelvis_tilt	pelvis_list	pelvis_rotation	pelvis_tx	pelvis_ty	pelvis_tz	hip_flexion_r	hip_adduction_r	hip_rotation_r	knee_angle_r	knee_angle_r_beta	ankle_angle_r	subtalar_angle_r	mtp_angle_r	hip_flexion_l	hip_adduction_l	hip_rotation_l	knee_angle_l	knee_angle_l_beta	ankle_angle_l	subtalar_angle_l	mtp_angle_l	lumbar_extension	lumbar_bending	lumbar_rotation	arm_flex_r	arm_add_r	arm_rot_r	elbow_flex_r	pro_sup_r	wrist_flex_r	wrist_dev_r	arm_flex_l	arm_add_l	arm_rot_l	elbow_flex_l	pro_sup_l	wrist_flex_l	wrist_dev_l
18.0999999999997	-8.89831544829957	-3.721153774354733	19.08298953813687	0	0.9399999999999999	0	45.60960796558972	-9.972223532689686	-10.03211090779606	54.57013576400642	0.9524285423422233	0	0	0	45.60960796558972	-9.972223532689686	-10.03211090779606	54.57013576400642	0.9524285423422233	0	0	0	-8.916731137529833	-0.6540035693425217	2.064650532447377	49.17622098622387	-2.668218244783481	12.41895865103919	69.19779534556875	119.9981223561455	0	0	34.40294285052757	-5.267704210579516	10.06894573982558	46.18742999882691	140.8189378600469	0	0
18.1199999999997	-8.908825473059872	-3.704189673516479	18.84346244245425	0	0.9399999999999999	0	45.60936944690911	-9.972261407766467	-10.0320828001832	54.57024862875336	0.9524305122036669	0	0	0	45.60936944690911	-9.972261407766467	-10.0320828001832	54.57024862875336	0.9524305122036669	0	0	0	-8.907654319263424	-0.6706965123436559	2.267329870694782	47.69837306396067	-3.574573495866715	11.57437624442404	71.05662860603459	121.1771249370171	0	0	34.35306258800665	-5.262552343153275	9.928303708897127	46.23437977901376	140.7910422698288	0	0
18.1399999999997	-8.91789289165936	-3.688903704856206	18.70884936021265	0	0.9399999999999999	0	45.60913430876009	-9.972298708029086	-10.03205510540438	54.57035991738083	0.9524324545566364	0	0	0	45.60913430876009	-9.972298708029086	-10.03205510540438	54.57035991738083	0.9524324545566364	0	0	0	-8.904889471866081	-0.6714985830448542	2.368120361944039	46.82466944911644	-4.142276938262219	11.19288725416845	71.99624408711801	121.600274199274	0	0	34.3148053010177	-5.250441664650777	9.798314128549023	46.24922364930271	140.8072559364301	0	0
18.1599999999997	-8.921810516816294	-3.667249614538824	18.55994499254704	0	0.9399999999999999	0	45.60893411223876	-9.972330395135597	-10.03203155729957	54.57045479966716	0.9524341105649345	0	0	0	45.60893411223876	-9.972330395135597	-10.03203155729957	54.57045479966716	0.9524341105649345	0	0	0	-8.895227621494632	-0.668151508358414	2.472386071885316	45.86710165734464	-4.755258198203018	10.8284932024943	72.84894903141618	122.1130269540325	0	0	34.28732886285927	-5.230484630079977	9.650298610818105	46.24952932932357	140.8523602459727	0	0
18.1799999999997	-8.92222683818134	-3.651344938786362	18.40451407850362	0	0.9399999999999999	0	45.60874468588005	-9.972360352138262	-10.03200928562868	54.57054459137453	0.9524356777258691	0	0	0	45.60874468588005	-9.972360352138262	-10.03200928562868	54.57054459137453	0.9524356777258691	0	0	0	-8.883434209477242	-0.6733441519238329	2.587819250303243	44.85612859162432	-5.456772688504921	10.44482353229615	73.710379817122	122.7350337432865	0	0	34.26393343995395	-5.214140999166723	9.54027487920883	46.23462255214224	140.8965062375792	0	0
18.1999999999997	-8.927368478222313	-3.654701600979641	18.23964869979732	0	0.9399999999999999	0	45.6084622179566	-9.972405111174695	-10.03197602602718	54.57067813224889	0.9524380084538127	0	0	0	45.6084622179566	-9.972405111174695	-10.03197602602718	54.57067813224889	0.9524380084538127	0	0	0	-8.882226916842255	-0.6948478421116983	2.693515550258317	43.78392411690987	-6.141018371487649	10.11501643438594	74.63585496175284	123.5743716902147	0	0	34.27444921998641	-5.219144912560935	9.455280647917583	46.21819088415437	140.976190935406	0	0
18.2199999999997	-8.928114016354288	-3.645049117310985	18.05673299355891	0	0.9399999999999999	0	45.60815286305775	-9.972454083757077	-10.03193961610987	54.57082436710186	0.9524405607334783	0	0	0	45.60815286305775	-9.972454083757077	-10.03193961610987	54.57082436710186	0.9524405607334783	0	0	0	-8.873661641435039	-0.7037261913325726	2.794136909114357	42.65257564307243	-6.843339036632744	9.858918709558695	75.38092020160511	124.712247382512	0	0	34.26873160898235	-5.228965465568004	9.302532087986894	46.18909664153269	141.0457655162462	0	0
18.2399999999997	-8.934483454581827	-3.636739434736695	17.90506991255194	0	0.9399999999999999	0	45.60787052369935	-9.972498684381286	-10.03190642592464	54.57095796523554	0.9524428924607855	0	0	0	45.60787052369935	-9.972498684381286	-10.03190642592464	54.57095796523554	0.9524428924607855	0	0	0	-8.869200158328836	-0.7176066813414651	2.926999024921661	41.48767629465978	-7.569182014182033	9.548281111277277	76.03897373194113	126.2191693944297	0	0	34.26111938939151	-5.19316334287737	9.234138635396119	46.16923185703521	141.0963040089781	0	0
18.2599999999997	-8.943597906028067	-3.631472767147295	17.74497284504857	0	0.9399999999999999	0	45.60759912175971	-9.972541507280487	-10.03187454018548	54.57108641177889	0.9524451342758796	0	0	0	45.60759912175971	-9.972541507280487	-10.03187454018548	54.57108641177889	0.9524451342758796	0	0	0	-8.869056711442813	-0.7314926807774496	3.049312957325327	40.33403046436185	-8.309563422454127	9.279581635454209	76.49400895505266	127.7434081068375	0	0	34.25609729021775	-5.170297243274543	9.17195585125336	46.17750553219702	141.1389341072461	0	0
18.2799999999997	-8.954928819883008	-3.628917563959123	17.5911862707718	0	0.9399999999999999	0	45.6073334760372	-9.972583366145805	-10.03184335256627	54.57121217943048	0.9524473293354925	0	0	0	45.6073334760372	-9.972583366145805	-10.03184335256627	54.57121217943048	0.9524473293354925	0	0	0	-8.872008755501508	-0.747146157701806	3.171486835952964	39.22925861678048	-9.038559877189238	9.01221017589441	76.78183522149733	129.405278522668	0	0	34.25716146104678	-5.14340143145586	9.11282798193508	46.17866342265041	141.160752544628	0	0
18.2999999999997	-8.961549253633395	-3.627639592206913	17.48270601893695	0	0.9399999999999999	0	45.60709490508648	-9.972620278803292	-10.03181567617569	54.57132699830584	0.9524493333029109	0	0	0	45.60709490508648	-9.972620278803292	-10.03181567617569	54.57132699830584	0.9524493333029109	0	0	0	-8.873911610330461	-0.7574881413534733	3.245847856878633	39.24055490844634	-9.01287118872208	9.040283012676305	75.59916153974264	131.3497988991125	0	0	34.24146830108285	-5.13399076448871	9.068834810009559	46.20223353662643	141.1855098213237	0	0
18.3199999999997	-8.971454572577892	-3.614738812357633	17.31696023191866	0	0.9399999999999999	0	45.6068333951095	-9.972661400081469	-10.03178500639018	54.57145084936001	0.9524514949115883	0	0	0	45.6068333951095	-9.972661400081469	-10.03178500639018	54.57145084936001	0.9524514949115883	0	0	0	-8.874484740841091	-0.7591960546251215	3.347319669445668	38.15892824240222	-9.726052712786361	8.850595257949818	75.51305383520729	132.9646157239977	0	0	34.20455950658329	-5.134239720622024	8.966960607160345	46.24161511460518	141.1879226525281	0	0
18.3399999999997	-8.974255891861713	-3.622392788508618	17.20709614000184	0	0.9399999999999999	0	45.60652724670915	-9.972709504910167	-10.03174911206051	54.57159580360459	0.9524540248404209	0	0	0	45.60652724670915	-9.972709504910167	-10.03174911206051	54.57159580360459	0.9524540248404209	0	0	0	-8.873277245397052	-0.7838233502492946	3.447016894723116	37.10519988654646	-10.34974605383846	8.575437211719064	76.73255616735793	132.7956377219654	0	0	34.17245872432093	-5.154371067597433	8.977845267488398	46.28596585729613	141.1933684341934	0	0
18.3599999999997	-8.97593955803338	-3.620091655654347	17.01654507281019	0	0.9399999999999999	0	45.6062176828048	-9.972758157135496	-10.03171280451828	54.57174219617337	0.9524565798727466	0	0	0	45.6062176828048	-9.972758157135496	-10.03171280451828	54.57174219617337	0.9524565798727466	0	0	0	-8.86869502310657	-0.7966880674883027	3.531265067875194	36.16116459391232	-10.89412533538088	8.308226782558249	76.26639800212131	134.2213049117435	0	0	34.13256354484691	-5.200818057013683	8.916443344945229	46.32401922988439	141.1970245231319	0	0
18.3799999999997	-8.974680400757512	-3.617528239835721	16.86487355219365	0	0.9399999999999999	0	45.60591019796334	-9.972806431539263	-10.03167675871652	54.57188760472668	0.9524591177307624	0	0	0	45.60591019796334	-9.972806431539263	-10.03167675871652	54.57188760472668	0.9524591177307624	0	0	0	-8.859181222739084	-0.8161043227323339	3.648515537603971	35.24902252880549	-11.45133979886582	7.911578635627023	75.47333109821606	135.242988495316	0	0	34.10664955185739	-5.208363722476287	8.946020731599519	46.35162051747636	141.1753500157054	0	0
18.3999999999997	-8.977690872913515	-3.617166103919602	16.64034962953682	0	0.9399999999999999	0	45.60556936228317	-9.972859921919685	-10.03163680465011	54.5720486723947	0.9524619288918879	0	0	0	45.60556936228317	-9.972859921919685	-10.03163680465011	54.5720486723947	0.9524619288918879	0	0	0	-8.85274395422967	-0.8408119287041823	3.797289829571721	33.79792319988999	-12.15252124234367	7.162425802970183	75.06254359287664	136.1548146608363	0	0	34.08425910621853	-5.245243453063023	8.917463277225032	46.36283884119552	141.1931820120335	0	0
18.4199999999997	-8.987447557500465	-3.617013636353093	16.35283068799161	0	0.9399999999999999	0	45.60524519283475	-9.97291047208642	-10.0315989557324	54.57220260597079	0.9524646155396199	0	0	0	45.60524519283475	-9.97291047208642	-10.0315989557324	54.57220260597079	0.9524646155396199	0	0	0	-8.849922282234299	-0.8722919738526492	3.989672426184409	33.12495184184526	-12.23448497359051	6.834556366854273	71.24307037529182	137.8017302211401	0	0	34.07703349289621	-5.290895296780684	8.863745934987746	46.39764488420078	141.2305845665452	0	0
18.4399999999997	-8.978534038102591	-3.596682318472169	16.18566009203892	0	0.9399999999999999	0	45.6048954706838	-9.972965105831495	-10.03155806530816	54.57236820998666	0.9524675058749513	0	0	0	45.6048954706838	-9.972965105831495	-10.03155806530816	54.57236820998666	0.9524675058749513	0	0	0	-8.830390692309971	-0.8715116898067231	4.084593011515181	32.42792234674952	-12.30853211807051	6.498174655637844	69.58490231311343	138.3941625697674	0	0	34.01565662169062	-5.310712321795898	8.799360177468337	46.43416960965177	141.2618334414647	0	0
